<mxfile host="Electron" agent="Mozilla/5.0 (Macintosh; Intel Mac OS X 10_15_7) AppleWebKit/537.36 (KHTML, like Gecko) draw.io/27.0.9 Chrome/134.0.6998.205 Electron/35.4.0 Safari/537.36" version="27.0.9">
  <diagram name="第 1 页" id="GHzaLnk0Py_9Dc-hwwJO">
    <mxGraphModel dx="946" dy="609" grid="1" gridSize="10" guides="1" tooltips="1" connect="1" arrows="1" fold="1" page="1" pageScale="1" pageWidth="827" pageHeight="1169" math="0" shadow="0">
      <root>
        <mxCell id="0" />
        <mxCell id="1" parent="0" />
        <mxCell id="g2JZpCZXmqbcSDM-ghkZ-1" value="产业大数据平台&lt;br&gt;(https://www.trs.com.cn/xyfa/szzf/cydn/)" style="rounded=0;whiteSpace=wrap;html=1;" vertex="1" parent="1">
          <mxGeometry y="40" width="230" height="60" as="geometry" />
        </mxCell>
        <mxCell id="g2JZpCZXmqbcSDM-ghkZ-2" value="数据处理流程" style="rounded=0;whiteSpace=wrap;html=1;" vertex="1" parent="1">
          <mxGeometry y="170" width="200" height="40" as="geometry" />
        </mxCell>
        <mxCell id="g2JZpCZXmqbcSDM-ghkZ-6" style="edgeStyle=orthogonalEdgeStyle;rounded=0;orthogonalLoop=1;jettySize=auto;html=1;entryX=0.5;entryY=0;entryDx=0;entryDy=0;" edge="1" parent="1" source="g2JZpCZXmqbcSDM-ghkZ-3" target="g2JZpCZXmqbcSDM-ghkZ-4">
          <mxGeometry relative="1" as="geometry" />
        </mxCell>
        <mxCell id="g2JZpCZXmqbcSDM-ghkZ-3" value="收集专利" style="rounded=0;whiteSpace=wrap;html=1;" vertex="1" parent="1">
          <mxGeometry x="30" y="250" width="120" height="60" as="geometry" />
        </mxCell>
        <mxCell id="g2JZpCZXmqbcSDM-ghkZ-7" style="edgeStyle=orthogonalEdgeStyle;rounded=0;orthogonalLoop=1;jettySize=auto;html=1;entryX=0.5;entryY=0;entryDx=0;entryDy=0;" edge="1" parent="1" source="g2JZpCZXmqbcSDM-ghkZ-4" target="g2JZpCZXmqbcSDM-ghkZ-5">
          <mxGeometry relative="1" as="geometry" />
        </mxCell>
        <mxCell id="g2JZpCZXmqbcSDM-ghkZ-4" value="提取关键词" style="rounded=0;whiteSpace=wrap;html=1;" vertex="1" parent="1">
          <mxGeometry x="30" y="350" width="120" height="60" as="geometry" />
        </mxCell>
        <mxCell id="g2JZpCZXmqbcSDM-ghkZ-5" value="企业相似度" style="rounded=0;whiteSpace=wrap;html=1;" vertex="1" parent="1">
          <mxGeometry x="30" y="460" width="120" height="60" as="geometry" />
        </mxCell>
      </root>
    </mxGraphModel>
  </diagram>
</mxfile>
